<svg xmlns="http://www.w3.org/2000/svg" viewBox="0 0 848 260" width="848" height="260" font-family="'Courier New',monospace">
  <defs>
    <linearGradient id="bg" x1="0" y1="0" x2="1" y2="1"><stop offset="0" stop-color="#0b1020"/><stop offset="1" stop-color="#161d3a"/></linearGradient>
  </defs>
  <rect x="0" y="0" width="848" height="260" rx="24" fill="url(#bg)"/>
  <!-- faint pixel grid -->
  <g opacity="0.06" stroke="#9fb0d9" stroke-width="1">
  <line x1="0" y1="0" x2="848" y2="0"/><line x1="0" y1="16" x2="848" y2="16"/><line x1="0" y1="32" x2="848" y2="32"/><line x1="0" y1="48" x2="848" y2="48"/><line x1="0" y1="64" x2="848" y2="64"/><line x1="0" y1="80" x2="848" y2="80"/><line x1="0" y1="96" x2="848" y2="96"/><line x1="0" y1="112" x2="848" y2="112"/><line x1="0" y1="128" x2="848" y2="128"/><line x1="0" y1="144" x2="848" y2="144"/><line x1="0" y1="160" x2="848" y2="160"/><line x1="0" y1="176" x2="848" y2="176"/><line x1="0" y1="192" x2="848" y2="192"/><line x1="0" y1="208" x2="848" y2="208"/><line x1="0" y1="224" x2="848" y2="224"/><line x1="0" y1="240" x2="848" y2="240"/><line x1="0" y1="256" x2="848" y2="256"/>
  <line x1="0" y1="0" x2="0" y2="260"/><line x1="16" y1="0" x2="16" y2="260"/><line x1="32" y1="0" x2="32" y2="260"/><line x1="48" y1="0" x2="48" y2="260"/><line x1="64" y1="0" x2="64" y2="260"/><line x1="80" y1="0" x2="80" y2="260"/><line x1="96" y1="0" x2="96" y2="260"/><line x1="112" y1="0" x2="112" y2="260"/><line x1="128" y1="0" x2="128" y2="260"/><line x1="144" y1="0" x2="144" y2="260"/><line x1="160" y1="0" x2="160" y2="260"/><line x1="176" y1="0" x2="176" y2="260"/><line x1="192" y1="0" x2="192" y2="260"/><line x1="208" y1="0" x2="208" y2="260"/><line x1="224" y1="0" x2="224" y2="260"/><line x1="240" y1="0" x2="240" y2="260"/><line x1="256" y1="0" x2="256" y2="260"/><line x1="272" y1="0" x2="272" y2="260"/><line x1="288" y1="0" x2="288" y2="260"/><line x1="304" y1="0" x2="304" y2="260"/><line x1="320" y1="0" x2="320" y2="260"/><line x1="336" y1="0" x2="336" y2="260"/><line x1="352" y1="0" x2="352" y2="260"/><line x1="368" y1="0" x2="368" y2="260"/><line x1="384" y1="0" x2="384" y2="260"/><line x1="400" y1="0" x2="400" y2="260"/><line x1="416" y1="0" x2="416" y2="260"/><line x1="432" y1="0" x2="432" y2="260"/><line x1="448" y1="0" x2="448" y2="260"/><line x1="464" y1="0" x2="464" y2="260"/><line x1="480" y1="0" x2="480" y2="260"/><line x1="496" y1="0" x2="496" y2="260"/><line x1="512" y1="0" x2="512" y2="260"/><line x1="528" y1="0" x2="528" y2="260"/><line x1="544" y1="0" x2="544" y2="260"/><line x1="560" y1="0" x2="560" y2="260"/><line x1="576" y1="0" x2="576" y2="260"/><line x1="592" y1="0" x2="592" y2="260"/><line x1="608" y1="0" x2="608" y2="260"/><line x1="624" y1="0" x2="624" y2="260"/><line x1="640" y1="0" x2="640" y2="260"/><line x1="656" y1="0" x2="656" y2="260"/><line x1="672" y1="0" x2="672" y2="260"/><line x1="688" y1="0" x2="688" y2="260"/><line x1="704" y1="0" x2="704" y2="260"/><line x1="720" y1="0" x2="720" y2="260"/><line x1="736" y1="0" x2="736" y2="260"/><line x1="752" y1="0" x2="752" y2="260"/><line x1="768" y1="0" x2="768" y2="260"/><line x1="784" y1="0" x2="784" y2="260"/><line x1="800" y1="0" x2="800" y2="260"/><line x1="816" y1="0" x2="816" y2="260"/><line x1="832" y1="0" x2="832" y2="260"/>
  </g>
  <rect x="110" y="52" width="15" height="15" rx="2" fill="#b072ff"/><rect x="110" y="68" width="15" height="15" rx="2" fill="#b072ff"/><rect x="62" y="84" width="15" height="15" rx="2" fill="#7c83ff"/><rect x="78" y="84" width="15" height="15" rx="2" fill="#7c83ff"/><rect x="94" y="84" width="15" height="15" rx="2" fill="#7c83ff"/><rect x="110" y="84" width="15" height="15" rx="2" fill="#7c83ff"/><rect x="126" y="84" width="15" height="15" rx="2" fill="#7c83ff"/><rect x="142" y="84" width="15" height="15" rx="2" fill="#7c83ff"/><rect x="158" y="84" width="15" height="15" rx="2" fill="#7c83ff"/><rect x="62" y="100" width="15" height="15" rx="2" fill="#7c83ff"/><rect x="158" y="100" width="15" height="15" rx="2" fill="#7c83ff"/><rect x="62" y="116" width="15" height="15" rx="2" fill="#7c83ff"/><rect x="94" y="116" width="15" height="15" rx="2" fill="#6ee7ff"/><rect x="126" y="116" width="15" height="15" rx="2" fill="#6ee7ff"/><rect x="158" y="116" width="15" height="15" rx="2" fill="#7c83ff"/><rect x="62" y="132" width="15" height="15" rx="2" fill="#7c83ff"/><rect x="158" y="132" width="15" height="15" rx="2" fill="#7c83ff"/><rect x="62" y="148" width="15" height="15" rx="2" fill="#7c83ff"/><rect x="94" y="148" width="15" height="15" rx="2" fill="#b072ff"/><rect x="110" y="148" width="15" height="15" rx="2" fill="#b072ff"/><rect x="126" y="148" width="15" height="15" rx="2" fill="#b072ff"/><rect x="158" y="148" width="15" height="15" rx="2" fill="#7c83ff"/><rect x="62" y="164" width="15" height="15" rx="2" fill="#7c83ff"/><rect x="78" y="164" width="15" height="15" rx="2" fill="#7c83ff"/><rect x="94" y="164" width="15" height="15" rx="2" fill="#7c83ff"/><rect x="110" y="164" width="15" height="15" rx="2" fill="#7c83ff"/><rect x="126" y="164" width="15" height="15" rx="2" fill="#7c83ff"/><rect x="142" y="164" width="15" height="15" rx="2" fill="#7c83ff"/><rect x="158" y="164" width="15" height="15" rx="2" fill="#7c83ff"/><rect x="78" y="180" width="15" height="15" rx="2" fill="#7c83ff"/><rect x="142" y="180" width="15" height="15" rx="2" fill="#7c83ff"/><rect x="232" y="78" width="15" height="15" rx="2" fill="#6ee7ff"/><rect x="296" y="78" width="15" height="15" rx="2" fill="#77d7ff"/><rect x="232" y="94" width="15" height="15" rx="2" fill="#6ee7ff"/><rect x="248" y="94" width="15" height="15" rx="2" fill="#70e3ff"/><rect x="280" y="94" width="15" height="15" rx="2" fill="#75dbff"/><rect x="296" y="94" width="15" height="15" rx="2" fill="#77d7ff"/><rect x="232" y="110" width="15" height="15" rx="2" fill="#6ee7ff"/><rect x="264" y="110" width="15" height="15" rx="2" fill="#72dfff"/><rect x="296" y="110" width="15" height="15" rx="2" fill="#77d7ff"/><rect x="232" y="126" width="15" height="15" rx="2" fill="#6ee7ff"/><rect x="264" y="126" width="15" height="15" rx="2" fill="#72dfff"/><rect x="296" y="126" width="15" height="15" rx="2" fill="#77d7ff"/><rect x="232" y="142" width="15" height="15" rx="2" fill="#6ee7ff"/><rect x="296" y="142" width="15" height="15" rx="2" fill="#77d7ff"/><rect x="232" y="158" width="15" height="15" rx="2" fill="#6ee7ff"/><rect x="296" y="158" width="15" height="15" rx="2" fill="#77d7ff"/><rect x="232" y="174" width="15" height="15" rx="2" fill="#6ee7ff"/><rect x="296" y="174" width="15" height="15" rx="2" fill="#77d7ff"/><rect x="344" y="78" width="15" height="15" rx="2" fill="#7bd0ff"/><rect x="360" y="78" width="15" height="15" rx="2" fill="#7dccff"/><rect x="376" y="78" width="15" height="15" rx="2" fill="#80c8ff"/><rect x="328" y="94" width="15" height="15" rx="2" fill="#79d4ff"/><rect x="392" y="94" width="15" height="15" rx="2" fill="#82c4ff"/><rect x="328" y="110" width="15" height="15" rx="2" fill="#79d4ff"/><rect x="392" y="110" width="15" height="15" rx="2" fill="#82c4ff"/><rect x="328" y="126" width="15" height="15" rx="2" fill="#79d4ff"/><rect x="344" y="126" width="15" height="15" rx="2" fill="#7bd0ff"/><rect x="360" y="126" width="15" height="15" rx="2" fill="#7dccff"/><rect x="376" y="126" width="15" height="15" rx="2" fill="#80c8ff"/><rect x="392" y="126" width="15" height="15" rx="2" fill="#82c4ff"/><rect x="328" y="142" width="15" height="15" rx="2" fill="#79d4ff"/><rect x="392" y="142" width="15" height="15" rx="2" fill="#82c4ff"/><rect x="328" y="158" width="15" height="15" rx="2" fill="#79d4ff"/><rect x="392" y="158" width="15" height="15" rx="2" fill="#82c4ff"/><rect x="328" y="174" width="15" height="15" rx="2" fill="#79d4ff"/><rect x="392" y="174" width="15" height="15" rx="2" fill="#82c4ff"/><rect x="424" y="78" width="15" height="15" rx="2" fill="#84c0ff"/><rect x="440" y="78" width="15" height="15" rx="2" fill="#86bcff"/><rect x="456" y="78" width="15" height="15" rx="2" fill="#88b8ff"/><rect x="472" y="78" width="15" height="15" rx="2" fill="#8bb4ff"/><rect x="424" y="94" width="15" height="15" rx="2" fill="#84c0ff"/><rect x="488" y="94" width="15" height="15" rx="2" fill="#8db0ff"/><rect x="424" y="110" width="15" height="15" rx="2" fill="#84c0ff"/><rect x="488" y="110" width="15" height="15" rx="2" fill="#8db0ff"/><rect x="424" y="126" width="15" height="15" rx="2" fill="#84c0ff"/><rect x="488" y="126" width="15" height="15" rx="2" fill="#8db0ff"/><rect x="424" y="142" width="15" height="15" rx="2" fill="#84c0ff"/><rect x="488" y="142" width="15" height="15" rx="2" fill="#8db0ff"/><rect x="424" y="158" width="15" height="15" rx="2" fill="#84c0ff"/><rect x="488" y="158" width="15" height="15" rx="2" fill="#8db0ff"/><rect x="424" y="174" width="15" height="15" rx="2" fill="#84c0ff"/><rect x="440" y="174" width="15" height="15" rx="2" fill="#86bcff"/><rect x="456" y="174" width="15" height="15" rx="2" fill="#88b8ff"/><rect x="472" y="174" width="15" height="15" rx="2" fill="#8bb4ff"/><rect x="536" y="78" width="15" height="15" rx="2" fill="#91a9ff"/><rect x="552" y="78" width="15" height="15" rx="2" fill="#93a5ff"/><rect x="568" y="78" width="15" height="15" rx="2" fill="#96a1ff"/><rect x="520" y="94" width="15" height="15" rx="2" fill="#8facff"/><rect x="584" y="94" width="15" height="15" rx="2" fill="#989dff"/><rect x="520" y="110" width="15" height="15" rx="2" fill="#8facff"/><rect x="584" y="110" width="15" height="15" rx="2" fill="#989dff"/><rect x="520" y="126" width="15" height="15" rx="2" fill="#8facff"/><rect x="584" y="126" width="15" height="15" rx="2" fill="#989dff"/><rect x="520" y="142" width="15" height="15" rx="2" fill="#8facff"/><rect x="584" y="142" width="15" height="15" rx="2" fill="#989dff"/><rect x="520" y="158" width="15" height="15" rx="2" fill="#8facff"/><rect x="584" y="158" width="15" height="15" rx="2" fill="#989dff"/><rect x="536" y="174" width="15" height="15" rx="2" fill="#91a9ff"/><rect x="552" y="174" width="15" height="15" rx="2" fill="#93a5ff"/><rect x="568" y="174" width="15" height="15" rx="2" fill="#96a1ff"/><rect x="616" y="78" width="15" height="15" rx="2" fill="#9a99ff"/><rect x="632" y="78" width="15" height="15" rx="2" fill="#9c95ff"/><rect x="648" y="78" width="15" height="15" rx="2" fill="#9e91ff"/><rect x="664" y="78" width="15" height="15" rx="2" fill="#a18dff"/><rect x="616" y="94" width="15" height="15" rx="2" fill="#9a99ff"/><rect x="680" y="94" width="15" height="15" rx="2" fill="#a389ff"/><rect x="616" y="110" width="15" height="15" rx="2" fill="#9a99ff"/><rect x="680" y="110" width="15" height="15" rx="2" fill="#a389ff"/><rect x="616" y="126" width="15" height="15" rx="2" fill="#9a99ff"/><rect x="632" y="126" width="15" height="15" rx="2" fill="#9c95ff"/><rect x="648" y="126" width="15" height="15" rx="2" fill="#9e91ff"/><rect x="664" y="126" width="15" height="15" rx="2" fill="#a18dff"/><rect x="616" y="142" width="15" height="15" rx="2" fill="#9a99ff"/><rect x="680" y="142" width="15" height="15" rx="2" fill="#a389ff"/><rect x="616" y="158" width="15" height="15" rx="2" fill="#9a99ff"/><rect x="680" y="158" width="15" height="15" rx="2" fill="#a389ff"/><rect x="616" y="174" width="15" height="15" rx="2" fill="#9a99ff"/><rect x="632" y="174" width="15" height="15" rx="2" fill="#9c95ff"/><rect x="648" y="174" width="15" height="15" rx="2" fill="#9e91ff"/><rect x="664" y="174" width="15" height="15" rx="2" fill="#a18dff"/><rect x="712" y="78" width="15" height="15" rx="2" fill="#a586ff"/><rect x="728" y="78" width="15" height="15" rx="2" fill="#a782ff"/><rect x="744" y="78" width="15" height="15" rx="2" fill="#a97eff"/><rect x="760" y="78" width="15" height="15" rx="2" fill="#ac7aff"/><rect x="776" y="78" width="15" height="15" rx="2" fill="#ae76ff"/><rect x="744" y="94" width="15" height="15" rx="2" fill="#a97eff"/><rect x="744" y="110" width="15" height="15" rx="2" fill="#a97eff"/><rect x="744" y="126" width="15" height="15" rx="2" fill="#a97eff"/><rect x="744" y="142" width="15" height="15" rx="2" fill="#a97eff"/><rect x="744" y="158" width="15" height="15" rx="2" fill="#a97eff"/><rect x="712" y="174" width="15" height="15" rx="2" fill="#a586ff"/><rect x="728" y="174" width="15" height="15" rx="2" fill="#a782ff"/><rect x="744" y="174" width="15" height="15" rx="2" fill="#a97eff"/><rect x="760" y="174" width="15" height="15" rx="2" fill="#ac7aff"/><rect x="776" y="174" width="15" height="15" rx="2" fill="#ae76ff"/>
  <text x="234" y="230" font-size="19" font-weight="700" fill="#9fb0d9" font-family="'Courier New',monospace">swarm-optimized marketing agent · 정합성 보장 · never wrong with numbers</text>
</svg>
